<svg id="Layer_1" data-name="Layer 1" xmlns="http://www.w3.org/2000/svg" viewBox="0 0 68.02 26.31"><defs><style>.cls-1{fill:#00aeef;}.cls-2{fill:#fff;}.cls-3{fill:#231f20;}.cls-4{fill:none;stroke:#231f20;stroke-miterlimit:10;}</style></defs><title>hotel2</title><rect class="cls-1" width="26.31" height="26.31" rx="3.44"/><path class="cls-2" d="M278.75,182.09v16.24a1.11,1.11,0,0,1-1.11,1.11h-2.27a1.11,1.11,0,0,1-1.11-1.11V193a1.11,1.11,0,0,0-1.11-1.11h-4.78a1.11,1.11,0,0,0-1.11,1.11v5.38a1.11,1.11,0,0,1-1.1,1.11h-2.28a1.11,1.11,0,0,1-1.11-1.11V182.09a1.11,1.11,0,0,1,1.11-1.11h2.28a1.11,1.11,0,0,1,1.1,1.11v5a1.11,1.11,0,0,0,1.11,1.1h4.78a1.11,1.11,0,0,0,1.11-1.1v-5a1.11,1.11,0,0,1,1.11-1.11h2.27A1.11,1.11,0,0,1,278.75,182.09Z" transform="translate(-257.61 -177.07)"/><path class="cls-3" d="M293.52,180.9v9.23h-2.25v-3.8h-3.5v3.8h-2.25V180.9h2.25v3.61h3.5V180.9Z" transform="translate(-257.61 -177.07)"/><path class="cls-3" d="M297.12,189.62a4.53,4.53,0,0,1-1.73-1.69,5,5,0,0,1,0-4.88,4.57,4.57,0,0,1,1.73-1.68,5,5,0,0,1,4.77,0,4.38,4.38,0,0,1,1.71,1.68,5,5,0,0,1,0,4.88,4.55,4.55,0,0,1-1.71,1.69,5,5,0,0,1-4.77,0Zm4.15-2.18a3.19,3.19,0,0,0,0-3.91,2.29,2.29,0,0,0-1.77-.73,2.33,2.33,0,0,0-1.78.73,3.23,3.23,0,0,0,0,3.91,2.29,2.29,0,0,0,1.78.73A2.26,2.26,0,0,0,301.27,187.44Z" transform="translate(-257.61 -177.07)"/><path class="cls-3" d="M312.12,180.9v1.8h-2.45v7.43h-2.25V182.7H305v-1.8Z" transform="translate(-257.61 -177.07)"/><path class="cls-3" d="M315.5,182.7v1.87h3v1.73h-3v2h3.41v1.8h-5.66V180.9h5.66v1.8Z" transform="translate(-257.61 -177.07)"/><path class="cls-3" d="M322.62,188.4h2.95v1.73h-5.2V180.9h2.25Z" transform="translate(-257.61 -177.07)"/><line class="cls-4" x1="27.87" y1="15.86" x2="68.02" y2="15.86"/><line class="cls-4" x1="27.87" y1="18.55" x2="68.02" y2="18.55"/><line class="cls-4" x1="27.87" y1="21.34" x2="68.02" y2="21.34"/></svg>