<svg id="Layer_1" data-name="Layer 1" xmlns="http://www.w3.org/2000/svg" viewBox="0 0 64.32 64.32"><defs><style>.cls-1{fill:none;stroke:#ed1e2d;stroke-linecap:round;stroke-linejoin:round;stroke-width:3px;}</style></defs><title>logo3</title><path class="cls-1" d="M107.08,95.27,125.5,71.18a3.15,3.15,0,0,1,4.42-.59,3,3,0,0,1,.62.62l16,21.49a1.6,1.6,0,0,1-1.29,2.56h-17.5" transform="translate(-100.4 -59.1)"/><path class="cls-1" d="M158,87.58l-18.78,23.8a3.16,3.16,0,0,1-4.43.52,3,3,0,0,1-.6-.63L118.55,89.53A1.6,1.6,0,0,1,119.87,87l17.49.27" transform="translate(-100.4 -59.1)"/><circle class="cls-1" cx="32.16" cy="32.16" r="30.66"/></svg>